<svg width="200" height="200" viewBox="0 0 200 200" fill="none" xmlns="http://www.w3.org/2000/svg">
<g clip-path="url(#clip0_4_2)">
<rect x="-0.913696" width="201.827" height="201.827" fill="#D2D7DB"/>
<g filter="url(#filter0_d_4_2)">
<path d="M100 99.7917C90.8333 99.7917 83.3333 96.875 77.5 91.0417C71.6666 85.2083 68.75 77.7083 68.75 68.5417C68.75 59.375 71.6666 51.875 77.5 46.0417C83.3333 40.2083 90.8333 37.2917 100 37.2917C109.167 37.2917 116.667 40.2083 122.5 46.0417C128.333 51.875 131.25 59.375 131.25 68.5417C131.25 77.7083 128.333 85.2083 122.5 91.0417C116.667 96.875 109.167 99.7917 100 99.7917ZM33.3333 166.667V147.083C33.3333 141.806 34.6528 137.292 37.2916 133.542C39.9305 129.792 43.3333 126.944 47.5 125C56.8055 120.833 65.7291 117.708 74.2708 115.625C82.8125 113.542 91.3889 112.5 100 112.5C108.611 112.5 117.153 113.576 125.625 115.729C134.097 117.882 142.981 120.986 152.275 125.04C156.623 127.002 160.108 129.847 162.731 133.575C165.355 137.303 166.667 141.806 166.667 147.083V166.667H33.3333ZM45.8333 154.167H154.167V147.083C154.167 144.861 153.507 142.743 152.187 140.729C150.868 138.715 149.236 137.222 147.292 136.25C138.403 131.944 130.278 128.993 122.917 127.396C115.556 125.799 107.917 125 100 125C92.0833 125 84.375 125.799 76.875 127.396C69.375 128.993 61.25 131.944 52.5 136.25C50.5555 137.222 48.9583 138.715 47.7083 140.729C46.4583 142.743 45.8333 144.861 45.8333 147.083V154.167ZM100 87.2917C105.417 87.2917 109.896 85.5208 113.437 81.9792C116.979 78.4375 118.75 73.9583 118.75 68.5417C118.75 63.125 116.979 58.6458 113.437 55.1042C109.896 51.5625 105.417 49.7917 100 49.7917C94.5833 49.7917 90.1041 51.5625 86.5625 55.1042C83.0208 58.6458 81.25 63.125 81.25 68.5417C81.25 73.9583 83.0208 78.4375 86.5625 81.9792C90.1041 85.5208 94.5833 87.2917 100 87.2917Z" fill="white"/>
</g>
</g>
<defs>
<filter id="filter0_d_4_2" x="29.3333" y="37.2917" width="141.333" height="137.375" filterUnits="userSpaceOnUse" color-interpolation-filters="sRGB">
<feFlood flood-opacity="0" result="BackgroundImageFix"/>
<feColorMatrix in="SourceAlpha" type="matrix" values="0 0 0 0 0 0 0 0 0 0 0 0 0 0 0 0 0 0 127 0" result="hardAlpha"/>
<feOffset dy="4"/>
<feGaussianBlur stdDeviation="2"/>
<feComposite in2="hardAlpha" operator="out"/>
<feColorMatrix type="matrix" values="0 0 0 0 0 0 0 0 0 0 0 0 0 0 0 0 0 0 0.25 0"/>
<feBlend mode="normal" in2="BackgroundImageFix" result="effect1_dropShadow_4_2"/>
<feBlend mode="normal" in="SourceGraphic" in2="effect1_dropShadow_4_2" result="shape"/>
</filter>
<clipPath id="clip0_4_2">
<rect width="200" height="200" fill="white"/>
</clipPath>
</defs>
</svg>
